<svg id="Capa_1" enable-background="new 0 0 512 512" height="512" viewBox="0 0 512 512" width="512" xmlns="http://www.w3.org/2000/svg"><g><path d="m512 79.267c0-43.708-35.559-79.267-79.267-79.267h-353.465c-43.709 0-79.268 35.559-79.268 79.267v297.233c0 30.418 24.748 55.166 55.166 55.166h89.434v65.334c0 5.199 2.692 10.027 7.114 12.76s9.944 2.981 14.594.657l57.558-28.78 57.558 28.78c2.117 1.059 4.415 1.583 6.708 1.583 2.743 0 5.478-.751 7.886-2.24 4.422-2.733 7.114-7.561 7.114-12.76v-65.334h89.435c30.418 0 55.166-24.747 55.166-55.166v-219.409c36.558-7.033 64.267-39.246 64.267-77.824zm-432.732-49.267c27.165 0 49.266 22.101 49.266 49.267s-22.101 49.267-49.266 49.267c-27.166-.001-49.268-22.102-49.268-49.267s22.102-49.267 49.268-49.267zm151.307 421.45c-4.224-2.111-9.193-2.111-13.417 0l-42.558 21.28v-58.302c13.539 10.776 30.658 17.238 49.267 17.238s35.728-6.462 49.267-17.238v2.219c0 .007-.001.013-.001.019 0 .007.001.013.001.02v56.044zm-55.975-99.05c0-27.166 22.101-49.268 49.267-49.268s49.267 22.102 49.267 49.268c0 27.165-22.101 49.266-49.267 49.266s-49.267-22.101-49.267-49.266zm217.967 49.266h-89.435v-49.266c0-43.708-35.559-79.268-79.267-79.268s-79.265 35.56-79.265 79.268v49.266h-89.434c-13.876 0-25.166-11.29-25.166-25.166v-235.206c13.54 10.776 30.658 17.239 49.268 17.239h338.466v217.967c-.001 13.876-11.29 25.166-25.167 25.166zm40.166-273.133h-291.438c10.776-13.539 17.238-30.658 17.238-49.267s-6.462-35.727-17.238-49.266h291.439c27.165 0 49.266 22.101 49.266 49.267s-22.101 49.266-49.267 49.266z"/><path d="m352.4 208.867h-257.067c-8.284 0-15 6.716-15 15s6.716 15 15 15h257.067c8.284 0 15-6.716 15-15s-6.715-15-15-15z"/></g></svg>