<?xml version="1.0" encoding="utf-8"?>
<!-- Generator: Adobe Illustrator 24.0.2, SVG Export Plug-In . SVG Version: 6.00 Build 0)  -->
<svg version="1.1" id="Capa_1" xmlns="http://www.w3.org/2000/svg" xmlns:xlink="http://www.w3.org/1999/xlink" x="0px" y="0px"
	 viewBox="0 0 519 469.1" style="enable-background:new 0 0 519 469.1;" xml:space="preserve">
<style type="text/css">
	.st0{stroke:#000000;stroke-width:7;stroke-miterlimit:10;}
</style>
<g>
	<g>
		<path class="st0" d="M184.8,226.1c-4.1,0-7.5-3.4-7.5-7.5v-12c0-4.1,3.4-7.5,7.5-7.5s7.5,3.4,7.5,7.5v12
			C192.3,222.7,188.9,226.1,184.8,226.1z"/>
		<path class="st0" d="M259.5,262.5c-17.2,0-31.2-15.3-31.2-34c0-23.5,21.9-23.5,31.2-23.5c9.3,0,31.2,0,31.2,23.5
			C290.7,247.3,276.7,262.5,259.5,262.5z M259.5,220c-15.5,0-16.2,2.6-16.2,8.5c0,10.5,7.3,19,16.2,19s16.2-8.5,16.2-19
			C275.7,222.6,275,220,259.5,220L259.5,220z"/>
		<path class="st0" d="M334.2,226.1c-4.1,0-7.5-3.4-7.5-7.5v-12c0-4.1,3.4-7.5,7.5-7.5s7.5,3.4,7.5,7.5v12
			C341.7,222.7,338.4,226.1,334.2,226.1z"/>
	</g>
	<g>
		<g>
			<path class="st0" d="M492,150.9V61c0-9.6-7.9-17.5-17.5-17.5H452V21c0-9.6-7.9-17.5-17.5-17.5h-390C34.9,3.5,27,11.4,27,21v76.4
				c-13.3,1.9-23.5,13.4-23.5,27.2V438c0,15.2,12.3,27.5,27.5,27.5h150.8c4.1,0,7.5-3.4,7.5-7.5s-3.4-7.5-7.5-7.5H31
				c-6.9,0-12.5-5.6-12.5-12.5V124.6c0-6.9,5.6-12.5,12.5-12.5h3.5l0,0l0,0h140.8c5.6,0,10.5,3.8,12,9.1l6.8,24.4
				c3.3,11.8,14.2,20.1,26.5,20.1h267.3c6.9,0,12.5,5.6,12.5,12.5v259.9c0,6.9-5.6,12.5-12.5,12.5H209.8c-4.1,0-7.5,3.4-7.5,7.5
				s3.4,7.5,7.5,7.5H488c15.2,0,27.5-12.3,27.5-27.5v-260C515.5,164.3,505.3,152.9,492,150.9z M208.6,141.5l-6.8-24.4
				c-3.3-11.8-14.2-20.1-26.5-20.1H82V61c0-1.4,1.1-2.5,2.5-2.5h224.3c4.1,0,7.5-3.4,7.5-7.5s-3.4-7.5-7.5-7.5H84.5
				C74.9,43.5,67,51.4,67,61v36.1H42V21c0-1.4,1.1-2.5,2.5-2.5h390c1.4,0,2.5,1.1,2.5,2.5v22.5H336.8c-4.1,0-7.5,3.4-7.5,7.5
				s3.4,7.5,7.5,7.5h107.7l0,0l0,0h30c1.4,0,2.5,1.1,2.5,2.5v89.6H220.7C215.1,150.6,210.1,146.9,208.6,141.5L208.6,141.5z"/>
		</g>
	</g>
</g>
</svg>
