<svg xmlns="http://www.w3.org/2000/svg" style="position:absolute; width: 0; height: 0"><symbol viewBox="0 0 384 320" id="icon-arrow"><path d="M16 176h319.2L213 292.4c-6.4 6.1-6.6 16.2-.6 22.6 6.1 6.4 16.2 6.6 22.6.6l139.6-133c6-6 9.4-14.1 9.4-22.6 0-8.5-3.3-16.6-9.7-22.9L235 4.4c-3.1-3-7.1-4.4-11-4.4-4.2 0-8.4 1.7-11.6 5-6.1 6.4-5.8 16.5.6 22.6L335.7 144H16c-8.8 0-16 7.2-16 16s7.2 16 16 16z"></path></symbol><symbol viewBox="0 0 480.004 480.004" id="icon-balance"><path d="M479.202 292.692l.072-.024-78.808-171.952 19.112-9.512-7.152-14.32-18.632 9.28-2.52-5.496a8 8 0 0 0-14.544 0l-2.248 4.912a102.908 102.908 0 0 0-43.28-9.576h-67.2v-16h16v-16H266.25l5.752-23.016c4.416-17.673-6.33-35.58-24.003-39.997-17.673-4.416-35.58 6.33-39.997 24.003a32.984 32.984 0 0 0 0 15.993l5.752 23.016h-13.752v16h16v16h-67.16a102.911 102.911 0 0 0-43.32 9.6l-2.248-4.912a8 8 0 0 0-14.544 0l-2.52 5.496-18.632-9.32-7.152 14.336 19.112 9.552L.73 292.668a7.813 7.813 0 0 0-.728 3.336c.035 30.913 25.087 55.965 56 56h80c30.913-.035 55.965-25.087 56-56a7.82 7.82 0 0 0-.8-3.312l-79.024-172.6a87.017 87.017 0 0 1 36.664-8.088h67.16v292.688l-27.312 27.312h-28.688c-22.08.026-39.974 17.92-40 40a8 8 0 0 0 8 8h224a8 8 0 0 0 8-8c-.026-22.08-17.92-39.974-40-40h-28.688l-27.312-27.312V112.004h67.2a87.017 87.017 0 0 1 36.664 8.088L288.73 292.668a7.813 7.813 0 0 0-.728 3.336c.035 30.913 25.087 55.965 56 56h80c30.913-.035 55.965-25.087 56-56a7.79 7.79 0 0 0-.8-3.312zm-343.2 43.312h-80c-19.002-.021-35.375-13.387-39.2-32h158.4c-3.824 18.613-20.198 31.979-39.2 32zm35.536-48H20.466l73.488-160.328c1.342.36 2.754.36 4.096 0l73.488 160.328zm55.08-265.472c6.23-7.392 17.273-8.333 24.665-2.103.759.64 1.463 1.344 2.103 2.103a16.887 16.887 0 0 1 3.096 14.576l-6.728 26.896H230.25l-6.728-26.896a16.89 16.89 0 0 1 3.096-14.576zm5.384 73.472v-16h16v16h-16zm16 16v288h-16v-288h16zm72 336a24.047 24.047 0 0 1 22.632 16H137.37a24.047 24.047 0 0 1 22.632-16h160zm-51.312-16h-57.376l16-16h25.376l16 16zM381.938 127.7a5.461 5.461 0 0 0 4.048-.168l73.552 160.472H308.466L381.938 127.7zm42.064 208.304h-80c-19.002-.021-35.375-13.387-39.2-32h158.4c-3.824 18.613-20.198 31.979-39.2 32z"></path></symbol><symbol viewBox="0 0 373.2 373.2" id="icon-chat"><style><![CDATA[.st0{stroke-width:5;stroke-miterlimit:10}]]></style><path class="st0" d="M187.5 0c-.1.1-.3.1-.6.1C85.7.1 3.4 82.4 3.4 183.6c0 41.3 14.1 81.4 39.9 113.7l-26.7 62c-2.2 5.1.2 11 5.2 13.1 1.8.8 3.8 1 5.7.7l97.9-17.2c19.6 7.1 40.2 10.7 61 10.6 101.2 0 183.5-82.3 183.5-183.5C370.1 82.1 288.4.1 187.5 0zm-1 346.6c-19.3 0-38.4-3.5-56.5-10.3-1.7-.7-3.5-.8-5.3-.5l-82.4 14.4 21.8-50.7c1.5-3.5.9-7.6-1.6-10.5-11.8-13.7-21.2-29.3-27.8-46.2-7.4-18.9-11.2-39-11.2-59.3C23.5 93.3 96.9 20 187 20c89.9-.2 162.9 72.5 163 162.4v.6c0 90.3-73.4 163.6-163.5 163.6z"></path><path class="st0" d="M178.7 146.7h-54c-5.5 0-10 4.5-10 10s4.5 10 10 10h54c5.5 0 10-4.5 10-10s-4.5-10-10-10zM248.7 196.7h-124c-5.5 0-10 4.5-10 10s4.5 10 10 10h124c5.5 0 10-4.5 10-10s-4.5-10-10-10z"></path></symbol><symbol viewBox="0 0 241.2 241.2" id="icon-cross"><path d="M135.5 120.7l84.3-83.8c4-4 4-10.5 0-14.5s-10.6-4-14.6 0L121 106.2l-85-85c-4-4-10.6-4-14.6 0s-4 10.6 0 14.6l84.9 84.9-85.2 84.7c-4 4-4 10.5 0 14.5s10.6 4 14.6 0l85.1-84.7 84.6 84.6c4 4 10.6 4 14.6 0s4-10.6 0-14.6l-84.5-84.5z"></path></symbol><symbol viewBox="0 0 512 512" id="icon-diplom"><path d="M512 79.267C512 35.559 476.441 0 432.733 0H79.268C35.559 0 0 35.559 0 79.267V376.5c0 30.418 24.748 55.166 55.166 55.166H144.6V497a15 15 0 0 0 21.708 13.417l57.558-28.78 57.558 28.78a14.983 14.983 0 0 0 6.708 1.583 15 15 0 0 0 15-15v-65.334h89.435c30.418 0 55.166-24.747 55.166-55.166V157.091C484.291 150.058 512 117.845 512 79.267zM79.268 30c27.165 0 49.266 22.101 49.266 49.267s-22.101 49.267-49.266 49.267C52.102 128.533 30 106.432 30 79.267S52.102 30 79.268 30zm151.307 421.45a15.004 15.004 0 0 0-13.417 0L174.6 472.73v-58.302c13.539 10.776 30.658 17.238 49.267 17.238s35.728-6.462 49.267-17.238v2.219l-.001.019.001.02v56.044zM174.6 352.4c0-27.166 22.101-49.268 49.267-49.268s49.267 22.102 49.267 49.268c0 27.165-22.101 49.266-49.267 49.266S174.6 379.565 174.6 352.4zm217.967 49.266h-89.435V352.4c0-43.708-35.559-79.268-79.267-79.268S144.6 308.692 144.6 352.4v49.266H55.166C41.29 401.666 30 390.376 30 376.5V141.294c13.54 10.776 30.658 17.239 49.268 17.239h338.466V376.5c-.001 13.876-11.29 25.166-25.167 25.166zm40.166-273.133H141.295c10.776-13.539 17.238-30.658 17.238-49.267S152.071 43.539 141.295 30h291.439C459.899 30 482 52.101 482 79.267s-22.101 49.266-49.267 49.266z"></path><path d="M352.4 208.867H95.333c-8.284 0-15 6.716-15 15s6.716 15 15 15H352.4c8.284 0 15-6.716 15-15s-6.715-15-15-15z"></path></symbol><symbol viewBox="0 0 519 469.1" id="icon-folder"><style><![CDATA[.st0{stroke:#000;stroke-width:7;stroke-miterlimit:10}]]></style><path class="st0" d="M184.8 226.1c-4.1 0-7.5-3.4-7.5-7.5v-12c0-4.1 3.4-7.5 7.5-7.5s7.5 3.4 7.5 7.5v12c0 4.1-3.4 7.5-7.5 7.5zM259.5 262.5c-17.2 0-31.2-15.3-31.2-34 0-23.5 21.9-23.5 31.2-23.5s31.2 0 31.2 23.5c0 18.8-14 34-31.2 34zm0-42.5c-15.5 0-16.2 2.6-16.2 8.5 0 10.5 7.3 19 16.2 19s16.2-8.5 16.2-19c0-5.9-.7-8.5-16.2-8.5zM334.2 226.1c-4.1 0-7.5-3.4-7.5-7.5v-12c0-4.1 3.4-7.5 7.5-7.5s7.5 3.4 7.5 7.5v12c0 4.1-3.3 7.5-7.5 7.5z"></path><g><path class="st0" d="M492 150.9V61c0-9.6-7.9-17.5-17.5-17.5H452V21c0-9.6-7.9-17.5-17.5-17.5h-390C34.9 3.5 27 11.4 27 21v76.4c-13.3 1.9-23.5 13.4-23.5 27.2V438c0 15.2 12.3 27.5 27.5 27.5h150.8c4.1 0 7.5-3.4 7.5-7.5s-3.4-7.5-7.5-7.5H31c-6.9 0-12.5-5.6-12.5-12.5V124.6c0-6.9 5.6-12.5 12.5-12.5h144.3c5.6 0 10.5 3.8 12 9.1l6.8 24.4c3.3 11.8 14.2 20.1 26.5 20.1h267.3c6.9 0 12.5 5.6 12.5 12.5v259.9c0 6.9-5.6 12.5-12.5 12.5H209.8c-4.1 0-7.5 3.4-7.5 7.5s3.4 7.5 7.5 7.5H488c15.2 0 27.5-12.3 27.5-27.5v-260c0-13.8-10.2-25.2-23.5-27.2zm-283.4-9.4l-6.8-24.4c-3.3-11.8-14.2-20.1-26.5-20.1H82V61c0-1.4 1.1-2.5 2.5-2.5h224.3c4.1 0 7.5-3.4 7.5-7.5s-3.4-7.5-7.5-7.5H84.5C74.9 43.5 67 51.4 67 61v36.1H42V21c0-1.4 1.1-2.5 2.5-2.5h390c1.4 0 2.5 1.1 2.5 2.5v22.5H336.8c-4.1 0-7.5 3.4-7.5 7.5s3.4 7.5 7.5 7.5h137.7c1.4 0 2.5 1.1 2.5 2.5v89.6H220.7c-5.6 0-10.6-3.7-12.1-9.1z"></path></g></symbol><symbol viewBox="0 0 512 512" id="icon-guarantee"><path d="M484.574 181.429c-6.756-20.92-3.876-52.323-21.436-76.57-17.698-24.438-48.479-31.384-65.86-44.096-17.198-12.578-33.198-39.949-62.127-49.389C307.038 2.2 278.29 14.649 256 14.649c-22.287 0-51.033-12.452-79.151-3.276-28.924 9.438-44.937 36.815-62.124 49.387-17.362 12.697-48.166 19.662-65.861 44.096-17.545 24.227-14.694 55.702-21.438 76.572C21.008 201.291 0 225.13 0 256.002c0 30.891 20.984 54.638 27.426 74.573 6.756 20.92 3.876 52.323 21.436 76.57 17.697 24.439 48.477 31.384 65.86 44.097 17.195 12.576 33.198 39.949 62.127 49.388 28.094 9.168 56.887-3.275 79.151-3.275 22.233 0 51.093 12.43 79.151 3.276 28.925-9.438 44.928-36.809 62.124-49.387 17.362-12.697 48.166-19.662 65.861-44.096 17.546-24.228 14.693-55.7 21.438-76.572C490.992 310.712 512 286.873 512 256.002c0-30.889-20.979-54.629-27.426-74.573zm-38.061 136.847c-7.875 24.375-5.812 51.654-15.772 65.408-10.094 13.937-36.613 20.303-57.076 35.271-20.239 14.801-34.424 38.264-50.922 43.647-15.608 5.094-41.044-5.249-66.742-5.249-25.886 0-51.06 10.365-66.743 5.249-16.496-5.383-30.661-28.83-50.922-43.648-20.342-14.877-47.012-21.374-57.077-35.272-9.928-13.708-7.943-41.176-15.77-65.405C57.817 294.538 40 273.983 40 256.002c0-17.999 17.801-38.483 25.487-62.274 7.875-24.374 5.812-51.655 15.772-65.408 10.088-13.928 36.627-20.315 57.077-35.271 20.303-14.849 34.399-38.256 50.92-43.647 15.595-5.088 41.114 5.249 66.743 5.249 25.933 0 51.044-10.372 66.743-5.249 16.494 5.382 30.671 28.838 50.923 43.648 20.339 14.877 47.011 21.374 57.076 35.271 9.93 13.711 7.934 41.151 15.77 65.405v.001C454.183 217.466 472 238.021 472 256.002c0 17.999-17.801 38.483-25.487 62.274zm-98.37-126.469c7.811 7.811 7.811 20.474 0 28.284L248.037 320.197c-7.811 7.811-20.475 7.81-28.285 0l-55.894-55.894c-7.811-7.811-7.812-20.474-.001-28.284s20.476-7.811 28.284 0l41.753 41.752 85.963-85.963c7.811-7.811 20.475-7.811 28.286-.001z"></path></symbol><symbol viewBox="0 0 448.3 464" id="icon-hand"><path d="M448.3 320c0-29.1-10-57.3-28.1-80h4.1c4.4 0 8-3.6 8-8 0-.7-.1-1.3-.2-1.9l-21-83.9c-2.7-10.7-12.3-18.2-23.3-18.2h-13.3l-6.5-25.9c-.9-3.6-4.1-6.1-7.8-6.1h-16V73.9c5.1-4.5 8-11 8-17.9V24c0-13.2-10.8-24-24-24h-16c-5.9 0-11.6 2.2-16 6.1-4.4-4-10.1-6.1-16-6.1h-32c-5.9 0-11.6 2.2-16 6.1-4.4-4-10.1-6.1-16-6.1h-32c-5.9 0-11.6 2.2-16 6.1-4.4-4-10.1-6.1-16-6.1h-16c-13.2 0-24 10.8-24 24v32c0 6.8 2.9 13.3 8 17.9V96h-16c-3.7 0-6.9 2.5-7.8 6.1L89.9 128H76.6c-11 0-20.6 7.5-23.3 18.2l-20.7 82.6C11.6 254.5 0 286.8 0 320c0 79.4 64.6 144 144 144 4.4 0 8-3.6 8-8v-8.3c24.4-1.5 47.9-10 67.6-24.5 26.9 26.1 62.9 40.7 100.4 40.8 4.4 0 8-3.6 8-8v-8.3c67.2-4.1 120.3-59.8 120.3-127.7zm-52.7-169.9l18.5 73.9h-93.3c-25.5.1-49.9 10.2-68 28.1-2.6-4.2-5.5-8.3-8.6-12.1h4.1c4.4 0 8-3.6 8-8 0-.7-.1-1.3-.2-1.9L240.5 168l4.5-17.9c.9-3.6 4.1-6.1 7.8-6.1h135c3.7 0 6.9 2.5 7.8 6.1zM198.5 128l-6.5-25.9c-.9-3.6-4.1-6.1-7.8-6.1h-16V73.9c3.4-3.1 5.9-7.1 7.2-11.6 2.9 1.1 5.9 1.7 8.9 1.7h32c5.9 0 11.6-2.2 16-6.1 4.4 4 10.1 6.1 16 6.1h32c3 0 6-.6 8.8-1.7 1.2 4.5 3.7 8.5 7.2 11.6V96h-16c-3.7 0-6.9 2.5-7.8 6.1L266 128h-13.3c-8.4 0-16.1 4.4-20.5 11.5-4.3-7.2-12.1-11.5-20.5-11.5h-13.2zm159.6 0h-75.5l4-16h67.5l4 16zm-29.8-32h-16V80h16v16zm-16-80h16c4.4 0 8 3.6 8 8v32c0 4.4-3.6 8-8 8h-16c-4.4 0-8-3.6-8-8V24c0-4.4 3.6-8 8-8zm-64 0h32c4.4 0 8 3.6 8 8v16c0 4.4-3.6 8-8 8h-32c-4.4 0-8-3.6-8-8V24c0-4.4 3.6-8 8-8zm-64 0h32c4.4 0 8 3.6 8 8v16c0 4.4-3.6 8-8 8h-32c-4.4 0-8-3.6-8-8V24c0-4.4 3.6-8 8-8zm-56 8c0-4.4 3.6-8 8-8h16c4.4 0 8 3.6 8 8v32c0 4.4-3.6 8-8 8h-16c-4.4 0-8-3.6-8-8V24zm8 56h16v16h-16V80zm-25.8 32H178l4 16h-75.5l4-16zm25.8 335.8c-66.9-4.2-120-59.9-120-127.8 0-30.3 10.8-59.7 30.4-82.8 1.3-1.5 2-3.4 1.9-5.4L69 150.1c.9-3.6 4.1-6.1 7.8-6.1h135c3.7 0 6.9 2.5 7.8 6.1l18.5 73.9H144.4c-52.6.6-95.6 43.1-96 95.3-.4 50.2 38 92.2 88 96.4l-.1 32.1zm67.6-74.5c-15.5-33.8-15.5-72.7 0-106.6 27.2 30.3 27.2 76.3 0 106.6zm-116.4 3.1c-15.1-15.1-23.4-35.6-23.2-57 .3-43.6 36.4-79.1 80.5-79.4 16.8.1 33.2 5.5 46.7 15.5-20.3 40.6-20.3 88.4 0 129-31.9 23.4-76.1 20-104-8.1zm64.8 39.3c52.8-4.4 92.1-50.8 87.7-103.6-2.4-29.3-18.2-55.8-42.7-72.1h25.4c44.2 43.3 44.9 114.2 1.7 158.4-19.1 19.5-44.8 31.4-72 33.4v-16.1h-.1zm160 32c-29.9-1.9-58.2-14.3-80-34.8 7.8-7.4 14.6-15.7 20.4-24.8 16 16 37.1 25.7 59.7 27.6v32h-.1zm-51.6-74.4c15.5-33.7 15.5-72.6.1-106.3 15.3-17.1 37.2-26.9 60.2-27 44.2.3 79.7 36.4 79.4 80.6-.3 44.2-36.4 79.7-80.6 79.4-22.7-.2-44.1-9.9-59.1-26.7zm67.6 58.4v-16c52.9-4.5 92.1-51 87.6-103.8-2.5-29.2-18.1-55.6-42.5-71.9h25.3c44.2 43.3 44.9 114.2 1.7 158.4-19.2 19.5-44.8 31.4-72.1 33.3z"></path><path d="M288.3 208c13.3 0 24-10.7 24-24s-10.7-24-24-24-24 10.7-24 24c0 13.2 10.8 24 24 24zm0-32c4.4 0 8 3.6 8 8s-3.6 8-8 8-8-3.6-8-8 3.6-8 8-8zM352.3 208c13.3 0 24-10.7 24-24s-10.7-24-24-24-24 10.7-24 24c0 13.2 10.8 24 24 24zm0-32c4.4 0 8 3.6 8 8s-3.6 8-8 8-8-3.6-8-8 3.6-8 8-8zM112.3 208c13.3 0 24-10.7 24-24s-10.7-24-24-24-24 10.7-24 24c0 13.2 10.8 24 24 24zm0-32c4.4 0 8 3.6 8 8s-3.6 8-8 8-8-3.6-8-8 3.6-8 8-8zM176.3 208c13.3 0 24-10.7 24-24s-10.7-24-24-24-24 10.7-24 24c0 13.2 10.8 24 24 24zm0-32c4.4 0 8 3.6 8 8s-3.6 8-8 8-8-3.6-8-8 3.6-8 8-8z"></path></symbol><symbol viewBox="0 0 360 512" id="icon-location"><path d="M180 0C80.7 0 0 80.7 0 180c0 33.5 9.3 66.3 26.9 94.7L169.8 505c2.7 4.4 7.6 7.1 12.7 7.1h.1c5.2 0 10.1-2.8 12.8-7.3l139.2-232.5c16.6-27.8 25.4-59.7 25.4-92.2C360 80.7 279.3 0 180 0zm128.9 256.8L182.3 468.2 52.4 258.8c-14.6-23.6-22.6-50.9-22.6-78.8C29.8 97.3 97.3 29.8 180 29.8S330.1 97.3 330.1 180c0 27.1-7.4 53.7-21.2 76.8z"></path><path d="M180 90c-49.6 0-90 40.4-90 90 0 49.3 39.7 90 90 90 50.9 0 90-41.2 90-90 0-49.6-40.4-90-90-90zm0 150.2c-33.3 0-60.2-27-60.2-60.2 0-33.1 27.1-60.2 60.2-60.2s60.1 27.1 60.1 60.2c0 32.7-26.3 60.2-60.1 60.2z"></path></symbol><symbol viewBox="0 0 433.7 319.5" id="icon-mail"><path d="M229.4 214.5c-4.1 2.6-8.7 3.6-12.8 3.6s-8.7-1-12.8-3.6L0 90.1v165.4c0 35.3 28.7 64 64 64h305.7c35.3 0 64-28.7 64-64V90.1L229.4 214.5z"></path><path d="M369.7 0H64C33.8 0 8.2 21.5 2 50.2l215 131.1L431.6 50.2C425.5 21.5 399.9 0 369.7 0z"></path></symbol><symbol viewBox="0 0 512 512" id="icon-phone"><path d="M511.95 412.553c-.714-19.805-8.964-38.287-23.229-52.042-27.931-26.933-51.333-42.481-73.647-48.929-30.745-8.886-59.225-.806-84.641 24.016l-.114.113-27.04 26.838c-16.899-9.526-49.759-30.442-85.261-65.944l-2.632-2.63c-35.508-35.507-56.423-68.373-65.94-85.253l26.84-27.041.114-.115c24.821-25.414 32.901-53.892 24.016-84.641-6.449-22.313-21.996-45.715-48.93-73.646C137.732 9.016 119.251.766 99.446.052 79.629-.663 60.613 6.235 45.865 19.473l-.574.516a20.9 20.9 0 0 0-.78.739C15.152 50.087-.238 91.188.003 139.589c.411 82.222 45.6 176.25 120.879 251.528 14.195 14.195 30.328 28.243 47.95 41.755 8.765 6.72 21.319 5.064 28.04-3.702 6.722-8.766 5.064-21.32-3.702-28.041-16.235-12.449-31.04-25.333-44.004-38.294C81.17 294.839 40.361 211.309 40.002 139.39c-.185-37.276 11.028-68.389 32.431-90.015l.153-.138a35.977 35.977 0 0 1 50.108 1.808c51.779 53.698 48.03 79.049 25.15 102.511l-37.074 37.352a20.003 20.003 0 0 0-4.076 22.226c.941 2.114 23.71 52.427 80.415 109.132l2.633 2.629c56.698 56.699 107.012 79.467 109.126 80.408a19.998 19.998 0 0 0 22.225-4.075l37.353-37.075c23.465-22.881 48.816-26.628 102.511 25.151a35.976 35.976 0 0 1 1.811 50.105l-.142.157c-21.449 21.229-52.231 32.433-89.101 32.433-.304 0-.608 0-.913-.002-29.471-.147-63.598-8.226-98.689-23.362-10.14-4.376-21.911.3-26.285 10.443-4.375 10.143.3 21.911 10.443 26.286 40.562 17.496 79.028 26.456 114.332 26.633l1.122.002c47.914 0 88.607-15.379 117.739-44.51.253-.254.499-.513.738-.78l.519-.577c13.237-14.747 20.134-33.775 19.419-53.579z"></path></symbol><symbol viewBox="0 0 384 384" id="icon-time"><path d="M343.594 101.04c-7.953 3.847-11.281 13.417-7.434 21.366C346.672 144.121 352 167.527 352 192c0 88.223-71.777 160-160 160S32 280.223 32 192 103.777 32 192 32c36.559 0 70.902 11.938 99.328 34.52 6.895 5.503 16.977 4.351 22.48-2.567 5.504-6.914 4.352-16.984-2.57-22.48C277.586 14.727 235.238 0 192 0 86.137 0 0 86.137 0 192s86.137 192 192 192 192-86.137 192-192c0-29.336-6.406-57.45-19.04-83.527-3.839-7.97-13.44-11.29-21.366-7.434zm0 0"></path><path d="M192 64c-8.832 0-16 7.168-16 16v112c0 8.832 7.168 16 16 16h80c8.832 0 16-7.168 16-16s-7.168-16-16-16h-64V80c0-8.832-7.168-16-16-16zm0 0"></path></symbol><symbol viewBox="0 0 450 512" id="icon-timer"><path d="M394.3 138.9l14.5-14.5 7.1 7.1c2.9 2.9 6.8 4.4 10.6 4.4s7.7-1.5 10.6-4.4c5.9-5.9 5.9-15.4 0-21.2l-35.4-35.4c-5.9-5.9-15.4-5.9-21.2 0-5.9 5.9-5.9 15.4 0 21.2l7.1 7.1-14.5 14.5c-29.6-26-65-43.5-103.1-51.2V30h5c8.3 0 15-6.7 15-15s-6.7-15-15-15H175c-8.3 0-15 6.7-15 15s6.7 15 15 15h5v36.5c-38.1 7.7-73.5 25.2-103.1 51.2l-14.5-14.5 7.1-7.1c5.9-5.9 5.9-15.4 0-21.2-5.9-5.9-15.4-5.9-21.2 0l-35.4 35.4c-5.9 5.9-5.9 15.4 0 21.2 2.9 2.9 6.8 4.4 10.6 4.4s7.7-1.5 10.6-4.4l7.1-7.1 14.5 14.5C19.7 179.9 0 231.9 0 287c0 60.1 23.4 116.6 65.9 159.1S164.9 512 225 512s116.6-23.4 159.1-65.9S450 347.1 450 287c0-55.1-19.7-107.1-55.7-148.1zM210 30h30v32.5c-5-.3-10-.5-15-.5s-10 .2-15 .5V30zm15 452c-107.5 0-195-87.5-195-195S117.5 92 225 92s195 87.5 195 195-87.5 195-195 195z"></path><circle cx="225" cy="137" r="15"></circle><circle cx="225" cy="437" r="15"></circle><ellipse cx="150" cy="157.1" rx="15" ry="15"></ellipse><path d="M292.5 403.9c-7.2 4.1-9.6 13.3-5.5 20.5 4.1 7.2 13.3 9.6 20.5 5.5 7.2-4.1 9.6-13.3 5.5-20.5-4.2-7.2-13.3-9.6-20.5-5.5z"></path><ellipse cx="95.1" cy="212" rx="15" ry="15"></ellipse><path d="M362.4 349c-7.2-4.1-16.3-1.7-20.5 5.5s-1.7 16.3 5.5 20.5 16.3 1.7 20.5-5.5 1.7-16.3-5.5-20.5z"></path><circle cx="75" cy="287" r="15"></circle><circle cx="375" cy="287" r="15"></circle><ellipse cx="95.1" cy="362.1" rx="15" ry="15"></ellipse><path d="M362.4 225c7.2-4.1 9.6-13.3 5.5-20.5-4.1-7.2-13.3-9.6-20.5-5.5-7.2 4.1-9.6 13.3-5.5 20.5 4.2 7.2 13.3 9.6 20.5 5.5z"></path><ellipse cx="150.1" cy="416.9" rx="15" ry="15"></ellipse><path d="M307.5 144.1c-7.2-4.1-16.3-1.7-20.5 5.5s-1.7 16.3 5.5 20.5 16.3 1.7 20.5-5.5c4.1-7.2 1.7-16.4-5.5-20.5zM225 242c-11.1 0-21.3 4.1-29.2 10.8L154.6 229c-7.2-4.1-16.4-1.7-20.5 5.5-4.1 7.2-1.7 16.3 5.5 20.5l41.2 23.8c-.5 2.7-.8 5.4-.8 8.2 0 24.8 20.2 45 45 45s45-20.2 45-45-20.2-45-45-45zm0 60c-8.3 0-15-6.7-15-15 0-2.3.5-4.5 1.5-6.4.2-.3.5-.7.7-1 .2-.4.4-.7.6-1.1 2.7-3.9 7.2-6.5 12.3-6.5 8.3 0 15 6.7 15 15s-6.8 15-15.1 15z"></path></symbol><symbol viewBox="0 0 503.5 487.3" id="icon-trial"><path d="M380.4 186.5l7.5 9.9c2.5 2.5 5 5 7.5 5s5 0 7.5-2.5l54.7-49.7c5-5 5-12.4 0-17.4L340.6 5c-2.5-2.5-5-5-7.5-5s-7.5 0-9.9 2.5l-54.7 49.7c-5 5-5 12.4 0 17.4l7.5 9.9-89.5 82-7.5-9.9c-5-5-12.4-5-17.4 0l-54.7 49.7c-2.5 2.5-5 5-5 7.5s0 7.5 2.5 9.9L221.3 348c2.5 2.5 5 5 7.5 5s5 0 7.5-2.5l54.7-49.7c2.5-2.5 5-5 5-7.5s0-7.5-2.5-9.9l-7.5-9.9 17.4-17.4 144.2 156.6c2.5 2.5 5 5 7.5 5s5 0 7.5-2.5l37.3-34.8c5-5 5-12.4 0-17.4L355.5 206.4l24.9-19.9zM333.2 27.3l101.9 109.4-37.3 32.3-7.5-9.9-84.5-92-7.5-9.9 34.9-29.9zm-99.5 293.4L131.8 211.3l37.3-34.8 17.4 19.9 74.6 82 7.5 9.9-34.9 32.4zM203.9 179l92-84.5 67.1 72.1-27.3 24.9-37.3 37.3-27.4 24.8-67.1-74.6zm273.5 189L460 385.4 325.7 238.7l17.4-17.4L477.4 368z"></path><path d="M348.1 474.9v-49.7c0-7.5-5-12.4-12.4-12.4h-37.3v-37.3c0-7.5-5-12.4-12.4-12.4H62.2c-7.5 0-12.4 5-12.4 12.4v37.3H12.4c-7.5 0-12.4 5-12.4 12.4v49.7c0 7.5 5 12.4 12.4 12.4h323.2c7.5 0 12.5-5 12.5-12.4zm-273.5-87h198.9v24.9H74.6v-24.9zm248.6 74.5H24.9v-24.9H323.3l-.1 24.9z"></path></symbol></svg>