<?xml version="1.0" encoding="utf-8"?>
<!-- Generator: Adobe Illustrator 24.0.2, SVG Export Plug-In . SVG Version: 6.00 Build 0)  -->
<svg version="1.1" id="Capa_1" xmlns="http://www.w3.org/2000/svg" xmlns:xlink="http://www.w3.org/1999/xlink" x="0px" y="0px"
	 viewBox="0 0 450 512" style="enable-background:new 0 0 450 512;" xml:space="preserve">
<g>
	<path d="M394.3,138.9l14.5-14.5l7.1,7.1c2.9,2.9,6.8,4.4,10.6,4.4s7.7-1.5,10.6-4.4c5.9-5.9,5.9-15.4,0-21.2l-35.4-35.4
		c-5.9-5.9-15.4-5.9-21.2,0c-5.9,5.9-5.9,15.4,0,21.2l7.1,7.1l-14.5,14.5c-29.6-26-65-43.5-103.1-51.2V30h5c8.3,0,15-6.7,15-15
		s-6.7-15-15-15H175c-8.3,0-15,6.7-15,15s6.7,15,15,15h5v36.5c-38.1,7.7-73.5,25.2-103.1,51.2l-14.5-14.5l7.1-7.1
		c5.9-5.9,5.9-15.4,0-21.2c-5.9-5.9-15.4-5.9-21.2,0l-35.4,35.4c-5.9,5.9-5.9,15.4,0,21.2c2.9,2.9,6.8,4.4,10.6,4.4
		s7.7-1.5,10.6-4.4l7.1-7.1l14.5,14.5C19.7,179.9,0,231.9,0,287c0,60.1,23.4,116.6,65.9,159.1S164.9,512,225,512
		s116.6-23.4,159.1-65.9S450,347.1,450,287C450,231.9,430.3,179.9,394.3,138.9L394.3,138.9z M210,30h30v32.5c-5-0.3-10-0.5-15-0.5
		s-10,0.2-15,0.5V30z M225,482c-107.5,0-195-87.5-195-195S117.5,92,225,92s195,87.5,195,195S332.5,482,225,482z"/>
	<circle cx="225" cy="137" r="15"/>
	<circle cx="225" cy="437" r="15"/>
	<ellipse cx="150" cy="157.1" rx="15" ry="15"/>
	<path d="M292.5,403.9c-7.2,4.1-9.6,13.3-5.5,20.5c4.1,7.2,13.3,9.6,20.5,5.5c7.2-4.1,9.6-13.3,5.5-20.5
		C308.8,402.2,299.7,399.8,292.5,403.9z"/>
	<ellipse cx="95.1" cy="212" rx="15" ry="15"/>
	<path d="M362.4,349c-7.2-4.1-16.3-1.7-20.5,5.5s-1.7,16.3,5.5,20.5s16.3,1.7,20.5-5.5S369.6,353.2,362.4,349z"/>
	<circle cx="75" cy="287" r="15"/>
	<circle cx="375" cy="287" r="15"/>
	<ellipse cx="95.1" cy="362.1" rx="15" ry="15"/>
	<path d="M362.4,225c7.2-4.1,9.6-13.3,5.5-20.5c-4.1-7.2-13.3-9.6-20.5-5.5c-7.2,4.1-9.6,13.3-5.5,20.5
		C346.1,226.7,355.2,229.1,362.4,225z"/>
	<ellipse cx="150.1" cy="416.9" rx="15" ry="15"/>
	<path d="M307.5,144.1c-7.2-4.1-16.3-1.7-20.5,5.5s-1.7,16.3,5.5,20.5s16.3,1.7,20.5-5.5C317.1,157.4,314.7,148.2,307.5,144.1z"/>
	<path d="M225,242c-11.1,0-21.3,4.1-29.2,10.8L154.6,229c-7.2-4.1-16.4-1.7-20.5,5.5c-4.1,7.2-1.7,16.3,5.5,20.5l41.2,23.8
		c-0.5,2.7-0.8,5.4-0.8,8.2c0,24.8,20.2,45,45,45s45-20.2,45-45S249.8,242,225,242z M225,302c-8.3,0-15-6.7-15-15
		c0-2.3,0.5-4.5,1.5-6.4c0.2-0.3,0.5-0.7,0.7-1c0.2-0.4,0.4-0.7,0.6-1.1c2.7-3.9,7.2-6.5,12.3-6.5c8.3,0,15,6.7,15,15
		S233.3,302,225,302L225,302z"/>
</g>
</svg>
