<?xml version="1.0" encoding="utf-8"?>
<!-- Generator: Adobe Illustrator 24.0.2, SVG Export Plug-In . SVG Version: 6.00 Build 0)  -->
<svg version="1.1" id="Capa_1" xmlns="http://www.w3.org/2000/svg" xmlns:xlink="http://www.w3.org/1999/xlink" x="0px" y="0px"
	 viewBox="0 0 241.2 241.2" style="enable-background:new 0 0 241.2 241.2;" xml:space="preserve">
<g>
	<path id="Close" d="M135.5,120.7l84.3-83.8c4-4,4-10.5,0-14.5c-4-4-10.6-4-14.6,0L121,106.2l-85-85c-4-4-10.6-4-14.6,0
		c-4,4-4,10.6,0,14.6l84.9,84.9l-85.2,84.7c-4,4-4,10.5,0,14.5c4,4,10.6,4,14.6,0l85.1-84.7l84.6,84.6c4,4,10.6,4,14.6,0
		c4-4,4-10.6,0-14.6L135.5,120.7z"/>
</g>
</svg>
