<?xml version="1.0" encoding="utf-8"?>
<!-- Generator: Adobe Illustrator 24.0.2, SVG Export Plug-In . SVG Version: 6.00 Build 0)  -->
<svg version="1.1" id="Outline" xmlns="http://www.w3.org/2000/svg" xmlns:xlink="http://www.w3.org/1999/xlink" x="0px" y="0px"
	 viewBox="0 0 448.3 464" style="enable-background:new 0 0 448.3 464;" xml:space="preserve">
<path d="M448.3,320c0-29.1-10-57.3-28.1-80h4.1c4.4,0,8-3.6,8-8c0-0.7-0.1-1.3-0.2-1.9l-21-83.9c-2.7-10.7-12.3-18.2-23.3-18.2
	h-13.3l-6.5-25.9c-0.9-3.6-4.1-6.1-7.8-6.1h-16V73.9c5.1-4.5,8-11,8-17.9V24c0-13.2-10.8-24-24-24h-16c-5.9,0-11.6,2.2-16,6.1
	c-4.4-4-10.1-6.1-16-6.1h-32c-5.9,0-11.6,2.2-16,6.1c-4.4-4-10.1-6.1-16-6.1h-32c-5.9,0-11.6,2.2-16,6.1c-4.4-4-10.1-6.1-16-6.1h-16
	c-13.2,0-24,10.8-24,24v32c0,6.8,2.9,13.3,8,17.9V96h-16c-3.7,0-6.9,2.5-7.8,6.1L89.9,128H76.6c-11,0-20.6,7.5-23.3,18.2l-20.7,82.6
	C11.6,254.5,0,286.8,0,320c0,79.4,64.6,144,144,144c4.4,0,8-3.6,8-8v-8.3c24.4-1.5,47.9-10,67.6-24.5
	c26.9,26.1,62.9,40.7,100.4,40.8c4.4,0,8-3.6,8-8v-8.3C395.2,443.6,448.3,387.9,448.3,320z M395.6,150.1l18.5,73.9h-92.7
	c-0.2,0-0.4,0-0.6,0c-25.5,0.1-49.9,10.2-68,28.1c-2.6-4.2-5.5-8.3-8.6-12.1h4.1c4.4,0,8-3.6,8-8c0-0.7-0.1-1.3-0.2-1.9L240.5,168
	l4.5-17.9c0.9-3.6,4.1-6.1,7.8-6.1h135C391.5,144,394.7,146.5,395.6,150.1z M198.5,128l-6.5-25.9c-0.9-3.6-4.1-6.1-7.8-6.1h-16V73.9
	c3.4-3.1,5.9-7.1,7.2-11.6c2.9,1.1,5.9,1.7,8.9,1.7h32c5.9,0,11.6-2.2,16-6.1c4.4,4,10.1,6.1,16,6.1h32c3,0,6-0.6,8.8-1.7
	c1.2,4.5,3.7,8.5,7.2,11.6V96h-16c-3.7,0-6.9,2.5-7.8,6.1L266,128h-13.3c-8.4,0-16.1,4.4-20.5,11.5c-4.3-7.2-12.1-11.5-20.5-11.5
	H198.5z M358.1,128h-75.5l4-16h67.5L358.1,128z M328.3,96h-16V80h16V96z M312.3,16h16c4.4,0,8,3.6,8,8v32c0,4.4-3.6,8-8,8h-16
	c-4.4,0-8-3.6-8-8V24C304.3,19.6,307.9,16,312.3,16z M248.3,16h32c4.4,0,8,3.6,8,8v16c0,4.4-3.6,8-8,8h-32c-4.4,0-8-3.6-8-8V24
	C240.3,19.6,243.9,16,248.3,16z M184.3,16h32c4.4,0,8,3.6,8,8v16c0,4.4-3.6,8-8,8h-32c-4.4,0-8-3.6-8-8V24
	C176.3,19.6,179.9,16,184.3,16z M128.3,24c0-4.4,3.6-8,8-8h16c4.4,0,8,3.6,8,8v32c0,4.4-3.6,8-8,8h-16c-4.4,0-8-3.6-8-8V24z
	 M136.3,80h16v16h-16V80z M110.5,112H178l4,16h-75.5L110.5,112z M136.3,447.8c-66.9-4.2-120-59.9-120-127.8
	c0-30.3,10.8-59.7,30.4-82.8c1.3-1.5,2-3.4,1.9-5.4L69,150.1c0.9-3.6,4.1-6.1,7.8-6.1h135c3.7,0,6.9,2.5,7.8,6.1l18.5,73.9h-92.6
	c-0.2,0-0.4,0-0.6,0s-0.4,0-0.5,0l0,0c-52.6,0.6-95.6,43.1-96,95.3c-0.4,50.2,38,92.2,88,96.4L136.3,447.8L136.3,447.8z
	 M203.9,373.3c-15.5-33.8-15.5-72.7,0-106.6C231.1,297,231.1,343,203.9,373.3z M87.5,376.4c-15.1-15.1-23.4-35.6-23.2-57
	c0.3-43.6,36.4-79.1,80.5-79.4c16.8,0.1,33.2,5.5,46.7,15.5c-20.3,40.6-20.3,88.4,0,129C159.6,407.9,115.4,404.5,87.5,376.4
	L87.5,376.4z M152.3,415.7c52.8-4.4,92.1-50.8,87.7-103.6c-2.4-29.3-18.2-55.8-42.7-72.1h25.4c44.2,43.3,44.9,114.2,1.7,158.4
	c-19.1,19.5-44.8,31.4-72,33.4v-16.1H152.3z M312.3,447.7c-29.9-1.9-58.2-14.3-80-34.8c7.8-7.4,14.6-15.7,20.4-24.8
	c16,16,37.1,25.7,59.7,27.6v32H312.3z M260.7,373.3c15.5-33.7,15.5-72.6,0.1-106.3c15.3-17.1,37.2-26.9,60.2-27
	c44.2,0.3,79.7,36.4,79.4,80.6c-0.3,44.2-36.4,79.7-80.6,79.4C297.1,399.8,275.7,390.1,260.7,373.3L260.7,373.3z M328.3,431.7v-16
	c52.9-4.5,92.1-51,87.6-103.8c-2.5-29.2-18.1-55.6-42.5-71.9h25.3c44.2,43.3,44.9,114.2,1.7,158.4
	C381.2,417.9,355.6,429.8,328.3,431.7z"/>
<path d="M288.3,208c13.3,0,24-10.7,24-24s-10.7-24-24-24s-24,10.7-24,24C264.3,197.2,275.1,208,288.3,208z M288.3,176
	c4.4,0,8,3.6,8,8s-3.6,8-8,8s-8-3.6-8-8S283.9,176,288.3,176z"/>
<path d="M352.3,208c13.3,0,24-10.7,24-24s-10.7-24-24-24s-24,10.7-24,24C328.3,197.2,339.1,208,352.3,208z M352.3,176
	c4.4,0,8,3.6,8,8s-3.6,8-8,8s-8-3.6-8-8S347.9,176,352.3,176z"/>
<path d="M112.3,208c13.3,0,24-10.7,24-24s-10.7-24-24-24s-24,10.7-24,24C88.3,197.2,99.1,208,112.3,208z M112.3,176c4.4,0,8,3.6,8,8
	s-3.6,8-8,8s-8-3.6-8-8S107.9,176,112.3,176z"/>
<path d="M176.3,208c13.3,0,24-10.7,24-24s-10.7-24-24-24c-13.3,0-24,10.7-24,24C152.3,197.2,163.1,208,176.3,208z M176.3,176
	c4.4,0,8,3.6,8,8s-3.6,8-8,8s-8-3.6-8-8S171.9,176,176.3,176z"/>
</svg>
