<?xml version="1.0" encoding="utf-8"?>
<!-- Generator: Adobe Illustrator 24.0.2, SVG Export Plug-In . SVG Version: 6.00 Build 0)  -->
<svg version="1.1" id="Capa_1" xmlns="http://www.w3.org/2000/svg" xmlns:xlink="http://www.w3.org/1999/xlink" x="0px" y="0px"
	 viewBox="0 0 503.5 487.3" style="enable-background:new 0 0 503.5 487.3;" xml:space="preserve">
<g>
	<g>
		<path d="M380.4,186.5l7.5,9.9c2.5,2.5,5,5,7.5,5l0,0c2.5,0,5,0,7.5-2.5l54.7-49.7c5-5,5-12.4,0-17.4L340.6,5c-2.5-2.5-5-5-7.5-5
			s-7.5,0-9.9,2.5l-54.7,49.7c-5,5-5,12.4,0,17.4l7.5,9.9l-89.5,82l-7.5-9.9c-5-5-12.4-5-17.4,0l-54.7,49.7c-2.5,2.5-5,5-5,7.5
			s0,7.5,2.5,9.9l116.9,129.3c2.5,2.5,5,5,7.5,5l0,0c2.5,0,5,0,7.5-2.5l54.7-49.7c2.5-2.5,5-5,5-7.5s0-7.5-2.5-9.9l-7.5-9.9
			l17.4-17.4l144.2,156.6c2.5,2.5,5,5,7.5,5l0,0c2.5,0,5,0,7.5-2.5l37.3-34.8c5-5,5-12.4,0-17.4L355.5,206.4L380.4,186.5z
			 M333.2,27.3l101.9,109.4l-37.3,32.3l-7.5-9.9l0,0l-84.5-92l0,0l-7.5-9.9L333.2,27.3z M233.7,320.7L131.8,211.3l37.3-34.8
			l17.4,19.9l74.6,82l0,0l7.5,9.9L233.7,320.7z M203.9,179l92-84.5l67.1,72.1l-27.3,24.9l0,0l-37.3,37.3l0,0L271,253.6L203.9,179z
			 M477.4,368L460,385.4L325.7,238.7l17.4-17.4L477.4,368z"/>
		<path d="M348.1,474.9v-49.7c0-7.5-5-12.4-12.4-12.4h-37.3v-37.3c0-7.5-5-12.4-12.4-12.4H62.2c-7.5,0-12.4,5-12.4,12.4v37.3H12.4
			c-7.5,0-12.4,5-12.4,12.4v49.7c0,7.5,5,12.4,12.4,12.4h323.2C343.1,487.3,348.1,482.3,348.1,474.9z M74.6,387.9h198.9v24.9H74.6
			V387.9z M323.2,462.4H24.9v-24.9h37.3h223.8h37.3L323.2,462.4L323.2,462.4z"/>
	</g>
</g>
</svg>
